<?xml version="1.0" encoding="iso-8859-1"?>
<!-- Generator: Adobe Illustrator 17.1.0, SVG Export Plug-In . SVG Version: 6.00 Build 0)  -->
<!DOCTYPE svg PUBLIC "-//W3C//DTD SVG 1.1//EN" "http://www.w3.org/Graphics/SVG/1.1/DTD/svg11.dtd">
<svg version="1.1" id="Capa_1" xmlns="http://www.w3.org/2000/svg" xmlns:xlink="http://www.w3.org/1999/xlink" x="0px" y="0px"
	 viewBox="0 0 465 465" style="enable-background:new 0 0 465 465;" xml:space="preserve">
<g>
	<path style="fill: #64707e;" d="M457.5,145.995c-4.142,0-7.5,3.357-7.5,7.5V354.5c0,5.238-4.262,9.5-9.5,9.5h-416c-5.238,0-9.5-4.262-9.5-9.5V153.495
		c0-4.143-3.358-7.5-7.5-7.5s-7.5,3.357-7.5,7.5V354.5C0,368.01,10.991,379,24.5,379h416c13.509,0,24.5-10.99,24.5-24.5V153.495
		C465,149.353,461.642,145.995,457.5,145.995z"/>
	<path style="fill: #64707e;" d="M457.5,86H7.5C3.358,86,0,89.357,0,93.5v39.998c0,4.143,3.358,7.5,7.5,7.5h450c4.142,0,7.5-3.357,7.5-7.5V93.5
		C465,89.357,461.642,86,457.5,86z M450,125.998H15V101h435V125.998z"/>
	<path style="fill: #64707e;" d="M420.98,229.999c4.142,0,7.5-3.357,7.5-7.5V206.5c0-17.921-14.58-32.5-32.5-32.5H70.159c-17.92,0-32.5,14.579-32.5,32.5v92
		c0,17.921,14.58,32.5,32.5,32.5H395.98c17.92,0,32.5-14.579,32.5-32.5v-46.001c0-4.143-3.358-7.5-7.5-7.5s-7.5,3.357-7.5,7.5V298.5
		c0,9.649-7.851,17.5-17.5,17.5H326v-13.056c24.578-3.639,43.5-24.871,43.5-50.444s-18.922-46.806-43.5-50.444V189h69.98
		c9.649,0,17.5,7.851,17.5,17.5v15.999C413.48,226.642,416.838,229.999,420.98,229.999z M139,287.709
		c-16.262-3.461-28.5-17.931-28.5-35.209s12.238-31.748,28.5-35.209V287.709z M52.659,298.5v-92c0-9.649,7.851-17.5,17.5-17.5H139
		v13.056c-24.578,3.639-43.5,24.871-43.5,50.444s18.922,46.806,43.5,50.444V316H70.159C60.51,316,52.659,308.149,52.659,298.5z
		 M354.5,252.5c0,17.278-12.238,31.748-28.5,35.209v-70.418C342.262,220.752,354.5,235.222,354.5,252.5z M311,316H154V189h157V316z"
		/>
</g>
<g>
</g>
<g>
</g>
<g>
</g>
<g>
</g>
<g>
</g>
<g>
</g>
<g>
</g>
<g>
</g>
<g>
</g>
<g>
</g>
<g>
</g>
<g>
</g>
<g>
</g>
<g>
</g>
<g>
</g>
</svg>
